<svg width="130" height="30" viewBox="0 0 130 30" fill="none" xmlns="http://www.w3.org/2000/svg">
<path d="M0.408445 27.713V12.7803C0.408445 12.1076 0.680742 11.5695 1.08919 11.1659C1.49763 10.7624 2.04223 10.4933 2.72297 10.4933C3.40371 10.4933 3.94831 10.7624 4.35675 11.1659C4.7652 11.5695 5.03749 12.1076 5.03749 12.7803V27.8475C5.03749 28.5202 4.7652 29.0583 4.35675 29.4619C3.81216 29.7309 3.26756 30 2.72297 30C2.04223 30 1.49763 29.7309 1.08919 29.3274C0.680742 28.9238 0.408445 28.3857 0.408445 27.713ZM0 5.65025C0 3.76685 0.953039 2.95967 2.72297 2.95967C4.4929 2.95967 5.44594 3.90137 5.44594 5.65025C5.44594 6.45743 5.17364 7.13007 4.7652 7.53366C4.2206 8.07177 3.53986 8.2063 2.72297 8.2063C1.76993 8.2063 1.22534 8.07177 0.680742 7.53366C0.272297 7.13007 0 6.45743 0 5.65025Z" fill="#171717"/>
<path d="M8.44592 24.6188V2.42155C8.44592 1.7489 8.71822 1.21078 9.12667 0.807197C9.53511 0.40361 10.0797 0.134552 10.6243 0.134552C11.305 0.134552 11.8496 0.40361 12.2581 0.807197C12.6665 1.21078 12.9388 1.7489 12.9388 2.42155V25.1569C12.9388 25.426 13.075 25.5605 13.2111 25.6951C13.3473 25.8296 13.6196 25.9641 13.7557 25.9641C14.3003 25.9641 14.8449 26.0986 15.2533 26.5022C15.6618 26.9058 15.7979 27.3094 15.7979 27.9821C15.7979 28.5202 15.6618 29.0583 15.2533 29.4619C14.8449 29.8655 14.3003 30 13.7557 30C12.1219 30 10.7604 29.5964 9.80741 28.6547C8.85437 27.713 8.44592 26.3677 8.44592 24.6188Z" fill="#171717"/>
<path d="M18.798 27.9821V12.9148C18.798 12.2422 19.0703 11.7041 19.4787 11.3005C19.8872 10.8969 20.4318 10.6278 21.1125 10.6278C21.7932 10.6278 22.3378 10.8969 22.7463 11.3005C23.1547 11.7041 23.427 12.2422 23.427 12.9148C23.8355 12.2422 24.5162 11.7041 25.4693 11.1659C26.4223 10.6278 27.5115 10.4933 28.7368 10.4933C30.3706 10.4933 31.5959 10.7624 32.6851 11.1659C33.502 11.5695 34.3189 12.2422 34.8635 13.0493C35.5442 12.1076 36.3611 11.435 37.3142 11.0314C38.2672 10.6278 39.4925 10.3588 40.854 10.3588C41.9432 10.3588 42.8963 10.4933 43.8493 10.7624C44.6662 11.0314 45.3469 11.435 45.8915 11.8386C46.4361 12.2422 46.8446 12.7803 47.253 13.4529C47.6614 14.1256 47.7976 14.7982 47.9337 15.3363C48.0699 16.009 48.206 16.6816 48.206 17.4888V27.8475C48.206 28.5202 47.9337 28.9238 47.5253 29.3274C47.1169 29.7309 46.5723 30 45.8915 30C45.2108 30 44.6662 29.7309 44.2577 29.3274C43.8493 28.9238 43.577 28.3857 43.577 27.8475V18.296C43.577 15.6054 42.3517 14.2601 39.901 14.2601C38.4034 14.2601 37.4503 14.6637 36.7696 15.3363C36.0888 16.009 35.8165 16.9507 35.8165 18.296V27.8475C35.8165 28.5202 35.5442 28.9238 35.1358 29.3274C34.7273 29.7309 34.1828 30 33.502 30C32.8213 30 32.2767 29.7309 31.8682 29.3274C31.4598 28.9238 31.1875 28.3857 31.1875 27.8475V18.296C31.1875 15.6054 29.9622 14.2601 27.5115 14.2601C24.6524 14.2601 23.2909 15.7399 23.2909 18.565V27.8475C23.2909 28.5202 23.0186 28.9238 22.6101 29.3274C22.2017 29.7309 21.6571 30 20.9764 30C20.2956 30 19.8872 29.8655 19.4787 29.4619C18.9341 29.0583 18.798 28.5202 18.798 27.9821Z" fill="#171717"/>
<path d="M51.2061 27.713V2.28699C51.2061 1.61435 51.4784 1.07623 51.8868 0.672645C52.2952 0.269058 52.8398 0 53.3844 0C54.0652 0 54.6098 0.269058 55.0182 0.672645C55.4267 1.07623 55.699 1.61435 55.699 2.28699V12.6457C56.1074 11.9731 56.7881 11.435 57.7412 10.8969C58.6942 10.3587 59.7834 10.2242 61.0088 10.2242C65.774 10.2242 68.0885 12.6457 68.0885 17.4888V27.8475C68.0885 28.5202 67.8162 28.9237 67.4077 29.3273C66.9993 29.7309 66.4547 30 65.774 30C65.0932 30 64.5486 29.7309 64.1402 29.3273C63.7317 28.9237 63.4594 28.3856 63.4594 27.8475V18.2959C63.4594 15.6054 62.2341 14.2601 59.7834 14.2601C56.9243 14.2601 55.5628 15.7399 55.5628 18.565V27.8475C55.5628 28.5202 55.2905 28.9237 54.8821 29.3273C54.4736 29.7309 53.929 30 53.2483 30C52.5675 30 52.0229 29.7309 51.6145 29.3273C51.3422 28.7892 51.2061 28.2511 51.2061 27.713Z" fill="#171717"/>
<path d="M75.7174 20.0448C75.7174 22.0628 76.1259 23.5426 76.9428 24.6188C77.7597 25.6951 78.8488 26.2332 80.3465 26.2332C81.8441 26.2332 83.0694 25.6951 83.7502 24.6188C84.5671 23.5426 84.9755 22.0628 84.9755 20.0448C84.9755 15.8744 83.4779 13.8565 80.3465 13.8565C77.2151 13.8565 75.7174 16.009 75.7174 20.0448ZM71.0884 20.0448C71.0884 16.6816 71.9053 14.2601 73.539 12.5112C75.1728 10.8969 77.3512 9.95517 80.3465 9.95517C83.3417 9.95517 85.5201 10.7623 87.0177 12.5112C88.6515 14.1256 89.4684 16.6816 89.4684 20.0448C89.4684 23.4081 88.6515 25.8296 87.0177 27.4439C85.384 29.0583 83.2056 30 80.3465 30C77.4874 30 75.1728 29.1928 73.539 27.4439C71.9053 25.8296 71.0884 23.4081 71.0884 20.0448Z" fill="#171717"/>
<path d="M92.4685 27.713V12.6458C92.4685 11.9731 92.7408 11.435 93.1492 11.0314C93.5577 10.6278 94.1023 10.3588 94.783 10.3588C95.4638 10.3588 96.0084 10.6278 96.4168 11.0314C96.8252 11.435 97.0975 11.9731 97.0975 12.6458C97.506 11.9731 98.1867 11.435 99.1398 10.8969C100.093 10.3588 101.182 10.2242 102.407 10.2242C107.173 10.2242 109.487 12.6458 109.487 17.4888V27.8475C109.487 28.5202 109.215 28.9238 108.806 29.3274C108.398 29.7309 107.853 30 107.173 30C106.492 30 105.947 29.7309 105.539 29.3274C105.13 28.9238 104.858 28.3857 104.858 27.8475V18.296C104.858 15.6054 103.633 14.2601 101.182 14.2601C98.3229 14.2601 96.9614 15.7399 96.9614 18.565V27.8475C96.9614 28.5202 96.6891 28.9238 96.2807 29.3274C95.8722 29.7309 95.3276 30 94.6469 30C93.9661 30 93.4215 29.7309 93.0131 29.3274C92.6046 28.7892 92.4685 28.2511 92.4685 27.713Z" fill="#171717"/>
<path d="M117.116 23.6771C117.116 24.4843 117.388 25.157 117.933 25.5605C118.478 25.9641 119.431 26.2332 120.52 26.2332C121.745 26.2332 122.698 25.8296 123.515 25.2915C124.332 24.6188 124.74 23.6771 124.74 22.6009V21.5247H119.839C118.886 21.5247 118.205 21.6592 117.661 22.0628C117.252 22.4664 117.116 23.0045 117.116 23.6771ZM112.487 23.6771C112.487 21.7937 113.168 20.3139 114.393 19.2377C115.755 18.1614 117.252 17.6233 119.294 17.6233H124.74V16.9507C124.74 16.1435 124.468 15.4709 123.787 14.9328C123.107 14.3946 122.154 14.1256 120.928 14.1256C120.111 14.1256 119.431 14.2601 118.75 14.5292C118.069 14.7982 117.388 15.2018 116.708 15.6054C116.299 15.8745 115.891 16.009 115.482 16.009C114.938 16.009 114.529 15.8745 114.121 15.4709C113.712 15.0673 113.576 14.6637 113.576 14.1256C113.576 13.5875 113.712 13.1839 114.121 12.7803C115.755 11.0314 118.069 10.0897 121.064 10.0897C123.651 10.0897 125.693 10.7624 127.191 11.9731C128.689 13.1839 129.369 14.9328 129.369 17.0852V27.713C129.369 28.2511 129.097 28.7892 128.689 29.1928C128.28 29.5964 127.736 29.8655 127.055 29.8655C126.51 29.8655 125.966 29.5964 125.421 29.1928C125.149 28.7892 124.877 28.2511 124.877 27.5785C123.924 29.1928 122.017 30 119.431 30C117.388 30 115.755 29.4619 114.529 28.2511C113.168 27.1749 112.487 25.5605 112.487 23.6771Z" fill="#171717"/>
</svg>
